# xmcd CD database file
#
# Track frame offsets:
#	150
#	7170
#	19175
#	34197
#	49372
#	69730
#	87022
#	93647
#	98425
#	101870
#	112212
#	124655
#	135825
#	148270
#	166150
#	180580
#	198207
#	212352
#	228335
#	246447
#	285010
#	299087
#
# Disc length: 4259 seconds
#
# Revision: 2
# Processed by: cddbd v1.5.1PL0 Copyright (c) Steve Scherf et al.
# Submitted via: CDex 1.51
#
DISCID=3c10a116
DTITLE=Laughin' Nose - Live In Black Box
DYEAR=1994
DGENRE=Punk
TTITLE0=Opening
TTITLE1=B-29の贈り物
TTITLE2=C'mon Everybody C'mon
TTITLE3=警告 Warning
TTITLE4=Song For U.S.A.
TTITLE5=R&R Desire
TTITLE6=Piss'en Ass
TTITLE7=Gimmie Job
TTITLE8=Out Of Money
TTITLE9=Russian Roulette
TTITLE10=Tokio Cambodia
TTITLE11=Illusion
TTITLE12=戦争反対
TTITLE13=Silent Day
TTITLE14=はみだし者の夢も希望もない結末-You Better Kill Yourself-
TTITLE15=TOMとJERRY
TTITLE16=Brain Control
TTITLE17=She's The Machine
TTITLE18=I Can't Trust A Woman
TTITLE19=Get The Glory
TTITLE20=London Night
TTITLE21=Paradise
EXTD=YEAR: 1994
EXTT0=
EXTT1=
EXTT2=
EXTT3=
EXTT4=
EXTT5=
EXTT6=
EXTT7=
EXTT8=
EXTT9=
EXTT10=
EXTT11=
EXTT12=
EXTT13=
EXTT14=
EXTT15=
EXTT16=
EXTT17=
EXTT18=
EXTT19=
EXTT20=
EXTT21=
PLAYORDER=
